# xmcd CD database file
#
# Track frame offsets:
#	150
#	12382
#	28665
#	47549
#	63064
#	75741
#	92260
#	103354
#	125086
#	136767
#	150160
#	164299
#	181383
#	196617
#	219185
#	233584
#
# Disc length: 3482 seconds
#
# Revision: 0
# Processed by: cddbd v1.5.2PL0 Copyright (c) Steve Scherf et al.
# Submitted via: CDex 1.51
#
DISCID=ba0d9810
DTITLE=Carl Sonny Leyland - The Carl Sonny Leyland Trio
DYEAR=1900
DGENRE=Jazz
TTITLE0=Up Montana Way
TTITLE1=Three Little Worlds
TTITLE2=My Name Is Ed
TTITLE3=Get Used To The Blues
TTITLE4=To B Or Not To B
TTITLE5=Thee Olde English Blues
TTITLE6=Hot Muffins
TTITLE7=Annue Laurie
TTITLE8=Three Alley Cats
TTITLE9=Greasy Porcupine
TTITLE10=Orwellian Tea
TTITLE11=Bedelia
TTITLE12=Linda's Boogie
TTITLE13=Goin' Down Slow
TTITLE14=New Southern Casey Jones
TTITLE15=Hindustan
EXTD=
EXTT0=
EXTT1=
EXTT2=
EXTT3=
EXTT4=
EXTT5=
EXTT6=
EXTT7=
EXTT8=
EXTT9=
EXTT10=
EXTT11=
EXTT12=
EXTT13=
EXTT14=
EXTT15=
PLAYORDER=
